<svg version="1.1" xmlns="http://www.w3.org/2000/svg" viewBox="0 0 928.59375 283.30353950235644" width="928.59375" height="283.30353950235644">
  <!-- svg-source:excalidraw -->
  
  <defs>
    <style class="style-fonts">
      @font-face {
        font-family: "Virgil";
        src: url("https://excalidraw.com/Virgil.woff2");
      }
      @font-face {
        font-family: "Cascadia";
        src: url("https://excalidraw.com/Cascadia.woff2");
      }
    </style>
  </defs>
  <g stroke-linecap="round" transform="translate(10 137.04398757724024) rotate(0 18.076171875 19.955078125)"><path d="M9.6 3.05 C9.6 3.05, 9.6 3.05, 9.6 3.05 M9.6 3.05 C9.6 3.05, 9.6 3.05, 9.6 3.05 M6.09 14.53 C8.39 10.66, 12.42 5.66, 14.71 1.98 M5.21 14.27 C7.68 12.31, 9.69 8.54, 16.65 1.61 M-1 25.71 C6.76 21.61, 8.07 14.42, 21.83 0.35 M0.85 25.21 C8.82 16.63, 15.61 8.02, 21.36 1.24 M3.31 27.45 C10.03 21.39, 13.17 13.45, 24.46 5.25 M3.29 29.28 C9 20.9, 16.65 14.73, 24.91 3.55 M5.12 32.08 C12.67 27.02, 15.45 19.44, 28.53 5.18 M5.44 31.98 C13.49 21.93, 23.4 12.99, 28.2 6.68 M8.11 36.03 C17.21 24.78, 24.66 15.53, 33.55 6.5 M7.89 35.7 C13.57 29.8, 18.83 23.23, 32.2 8.63 M10.6 39.85 C19.71 30.56, 27.78 20.06, 35.8 9.99 M9.69 37.8 C16.08 33.27, 21.87 25.63, 35.36 9.74 M15.65 38.25 C21.25 32.96, 29.18 22.55, 37.71 13.04 M14.36 38.81 C23.3 29.8, 29.69 21.38, 36.83 15.13 M21.16 38.05 C27.72 31.76, 30.27 27.99, 39.93 17.43 M19.8 38.47 C26.47 32.31, 32.29 26.47, 38.43 18.5 M29.31 36.15 C32.02 33.39, 36.13 27.62, 40.63 22.42 M29.58 34.31 C33.32 31.28, 36.01 27.02, 40.01 23.23" stroke="#000000" stroke-width="0.5" fill="none"></path><path d="M22.6 0.73 C26.15 1.53, 29.9 4.96, 32.29 8.3 C34.67 11.63, 37 16.5, 36.9 20.73 C36.8 24.97, 34.44 30.67, 31.69 33.69 C28.94 36.72, 24.29 38.38, 20.41 38.87 C16.53 39.37, 11.75 38.91, 8.42 36.66 C5.09 34.42, 1.51 29.41, 0.44 25.41 C-0.63 21.41, 0.42 16.45, 2 12.67 C3.58 8.88, 6.37 4.54, 9.92 2.68 C13.48 0.82, 21.22 1.76, 23.35 1.52 C25.48 1.29, 23.02 0.91, 22.71 1.24 M9.46 3.28 C12.67 1.14, 18.15 0.51, 22.19 1.41 C26.24 2.31, 31.29 5.27, 33.73 8.69 C36.17 12.12, 37.32 17.93, 36.82 21.97 C36.32 26, 33.73 29.88, 30.75 32.88 C27.77 35.89, 22.78 39.36, 18.95 39.98 C15.12 40.6, 10.79 39.19, 7.77 36.6 C4.75 34.01, 1.75 28.36, 0.84 24.45 C-0.07 20.53, 0.96 16.7, 2.31 13.1 C3.66 9.49, 7.66 4.7, 8.95 2.82 C10.25 0.95, 9.93 1.62, 10.07 1.84" stroke="#000000" stroke-width="1" fill="none"></path></g><g mask="url(#mask-9bg_BrTI5ZCySuxqhVcMu)" stroke-linecap="round"><g transform="translate(55.479158277609486 157.07553936748317) rotate(0 96.9611196519021 0.6139321007468084)"><path d="M0 0 C32.32 0.2, 161.6 1.02, 193.92 1.23 M0 0 C32.32 0.2, 161.6 1.02, 193.92 1.23" stroke="#000000" stroke-width="1" fill="none"></path></g><g transform="translate(55.479158277609486 157.07553936748317) rotate(0 96.9611196519021 0.6139321007468084)"><path d="M193.92 1.23 L180.29 7.48 L180.37 -5.2 L193.92 1.23" stroke="none" stroke-width="0" fill="#000000" fill-rule="evenodd"></path><path d="M193.92 1.23 C189.88 3.08, 185.83 4.94, 180.29 7.48 M193.92 1.23 C191.03 2.56, 188.13 3.88, 180.29 7.48 M180.29 7.48 C180.32 2.87, 180.35 -1.75, 180.37 -5.2 M180.29 7.48 C180.32 2.95, 180.35 -1.58, 180.37 -5.2 M180.37 -5.2 C185.02 -2.99, 189.67 -0.79, 193.92 1.23 M180.37 -5.2 C185.39 -2.82, 190.4 -0.44, 193.92 1.23 M193.92 1.23 C193.92 1.23, 193.92 1.23, 193.92 1.23 M193.92 1.23 C193.92 1.23, 193.92 1.23, 193.92 1.23" stroke="#000000" stroke-width="1" fill="none"></path></g></g><mask id="mask-9bg_BrTI5ZCySuxqhVcMu"><rect x="0" y="0" fill="#fff" width="349.4013975814137" height="258.3034035689768"></rect><rect x="95.44027792951158" y="137.68947146822995" fill="#000" width="114" height="40" opacity="1"></rect></mask><g transform="translate(95.44027792951158 137.68947146823) rotate(0 57 20)"><text x="57" y="14" font-family="Virgil, Segoe UI Emoji" font-size="16px" fill="#000000" text-anchor="middle" style="white-space: pre;" direction="ltr">Create </text><text x="57" y="34" font-family="Virgil, Segoe UI Emoji" font-size="16px" fill="#000000" text-anchor="middle" style="white-space: pre;" direction="ltr">Candy Machine</text></g><g stroke-linecap="round" transform="translate(257.974609375 121.49125320224024) rotate(0 35.5 35)"><path d="M48.31 3.05 C54.48 4.99, 61.4 9.75, 65.04 15.39 C68.69 21.02, 70.55 29.96, 70.16 36.87 C69.77 43.79, 66.93 51.43, 62.7 56.87 C58.47 62.31, 51.46 67.56, 44.79 69.5 C38.12 71.43, 29.11 70.93, 22.66 68.46 C16.2 65.99, 9.97 60.42, 6.06 54.66 C2.16 48.89, -1.18 40.86, -0.78 33.87 C-0.38 26.88, 4.08 18.11, 8.45 12.69 C12.82 7.26, 17.91 2.61, 25.45 1.31 C32.98 0.01, 48.25 3.73, 53.65 4.87 C59.04 6.02, 58.14 7.64, 57.81 8.16 M38.51 1.5 C45.21 1.8, 54.29 4.98, 59.57 9.2 C64.84 13.43, 68.85 20.14, 70.17 26.83 C71.49 33.52, 70.04 43.11, 67.47 49.35 C64.91 55.58, 60.67 60.82, 54.79 64.24 C48.91 67.66, 39.28 70.06, 32.17 69.85 C25.06 69.64, 17.26 67.5, 12.12 62.98 C6.97 58.47, 2.75 49.66, 1.29 42.79 C-0.17 35.92, 0.71 28.02, 3.36 21.76 C6.01 15.51, 11.1 8.8, 17.17 5.25 C23.24 1.7, 36.13 1.23, 39.77 0.47 C43.41 -0.29, 39.29 0.37, 39.01 0.71" stroke="#000000" stroke-width="1" fill="none"></path></g><g transform="translate(268.974609375 146.49125320224024) rotate(0 24.5 10)"><text x="24.5" y="14" font-family="Virgil, Segoe UI Emoji" font-size="16px" fill="#000000" text-anchor="middle" style="white-space: pre;" direction="ltr">Initial</text></g><g mask="url(#mask-bB9AcbF_qveMqNboHynfW)" stroke-linecap="round"><g transform="translate(237.15234375 129.83695632724024) rotate(335.08113723124706 15.614337856902978 -39.98155251568693)"><path d="M0 0 C-0.94 -8.85, -8.46 -39.43, -5.64 -53.11 C-2.83 -66.79, 9.73 -82.29, 16.89 -82.08 C24.05 -81.87, 35.69 -65.86, 37.33 -51.83 C38.96 -37.79, 28.47 -6.87, 26.7 2.12 M0 0 C-0.94 -8.85, -8.46 -39.43, -5.64 -53.11 C-2.83 -66.79, 9.73 -82.29, 16.89 -82.08 C24.05 -81.87, 35.69 -65.86, 37.33 -51.83 C38.96 -37.79, 28.47 -6.87, 26.7 2.12" stroke="#000000" stroke-width="1" fill="none"></path></g><g transform="translate(237.15234375 129.83695632724024) rotate(335.08113723124706 15.614337856902978 -39.98155251568693)"><path d="M26.7 2.12 L24 -12.63 L36.27 -9.43 L26.7 2.12" stroke="none" stroke-width="0" fill="#000000" fill-rule="evenodd"></path><path d="M26.7 2.12 C25.75 -3.06, 24.8 -8.24, 24 -12.63 M26.7 2.12 C26.05 -1.4, 25.41 -4.93, 24 -12.63 M24 -12.63 C28.69 -11.41, 33.37 -10.19, 36.27 -9.43 M24 -12.63 C26.98 -11.85, 29.97 -11.08, 36.27 -9.43 M36.27 -9.43 C33.84 -6.5, 31.41 -3.57, 26.7 2.12 M36.27 -9.43 C33.27 -5.81, 30.26 -2.18, 26.7 2.12 M26.7 2.12 C26.7 2.12, 26.7 2.12, 26.7 2.12 M26.7 2.12 C26.7 2.12, 26.7 2.12, 26.7 2.12" stroke="#000000" stroke-width="1" fill="none"></path></g></g><mask id="mask-bB9AcbF_qveMqNboHynfW"><rect x="0" y="0" fill="#fff" width="380.125" height="314.0400813272403"></rect><rect x="168.68577308102442" y="41.136510606989305" fill="#000" width="135" height="20" opacity="1"></rect></mask><g transform="translate(168.68577308102442 41.136510606989305) rotate(0 84.08090852587856 48.71889320456401)"><text x="67.5" y="14" font-family="Virgil, Segoe UI Emoji" font-size="16px" fill="#000000" text-anchor="middle" style="white-space: pre;" direction="ltr">Create collection</text></g><g mask="url(#mask-GwDT2nSWt7wIw1_B3qmm1)" stroke-linecap="round"><g transform="translate(280.3393990214297 193.6740143744819) rotate(0 4.346213438442533 34.46784879694147)"><path d="M0.44 -1.17 C-1.53 6.38, -12.63 33.97, -11.69 45.67 C-10.74 57.38, 0.68 69.39, 6.11 69.07 C11.54 68.75, 18.67 55.02, 20.89 43.74 C23.12 32.46, 19.63 8.32, 19.45 1.4 M-0.79 0.83 C-2.96 7.98, -13.96 32.26, -12.86 43.81 C-11.76 55.35, 0.18 70.46, 5.83 70.1 C11.48 69.74, 18.98 53.09, 21.01 41.65 C23.05 30.21, 18.56 8.18, 18.03 1.44" stroke="#000000" stroke-width="1" fill="none"></path></g><g transform="translate(280.3393990214297 193.6740143744819) rotate(0 4.346213438442533 34.46784879694147)"><path d="M16.74 1.45 L27.16 13.78 L13.07 15.39 L18.57 1.25" stroke="none" stroke-width="0" fill="#000000" fill-rule="evenodd"></path><path d="M16.57 0.91 C21.16 6.46, 22.34 8.89, 27.21 14.2 M17.35 1.5 C20.2 4.07, 21.7 8.22, 26.81 13.73 M25.43 14.8 C22.75 15.54, 18.43 14.16, 14.25 15.81 M26.41 14.68 C24 14.06, 21.32 14.38, 13.03 15.35 M12.12 15.28 C15 11.21, 16.24 9.14, 17.4 2.06 M13.56 16.43 C15.7 10.04, 17.23 5.07, 17.4 1.22 M18.03 1.44 C18.03 1.44, 18.03 1.44, 18.03 1.44 M18.03 1.44 C18.03 1.44, 18.03 1.44, 18.03 1.44" stroke="#000000" stroke-width="1" fill="none"></path></g></g><mask id="mask-GwDT2nSWt7wIw1_B3qmm1"><rect x="0" y="0" fill="#fff" width="412.7300240214297" height="363.30353950235644"></rect><rect x="215.51689403743387" y="253.3035395023565" fill="#000" width="140" height="20" opacity="1"></rect></mask><g transform="translate(215.51689403743387 253.3035395023565) rotate(0 69.16871842243836 -25.16167633093309)"><text x="70" y="14" font-family="Virgil, Segoe UI Emoji" font-size="16px" fill="#000000" text-anchor="middle" style="white-space: pre;" direction="ltr">Update Sell Price</text></g><g mask="url(#mask-x3RJzajK4I_phWo2-rijT)" stroke-linecap="round"><g transform="translate(310.3359375 116.06341284677862) rotate(0 35.36107936592907 -12.119772735040158)"><path d="M0 0 C3.36 -3.59, 8.49 -14.89, 20.16 -21.53 C31.83 -28.17, 65.47 -43.64, 70 -39.82 C74.53 -36, 56.62 -7.92, 47.35 1.41 C38.09 10.75, 19.92 13.72, 14.43 16.18 M0 0 C3.36 -3.59, 8.49 -14.89, 20.16 -21.53 C31.83 -28.17, 65.47 -43.64, 70 -39.82 C74.53 -36, 56.62 -7.92, 47.35 1.41 C38.09 10.75, 19.92 13.72, 14.43 16.18" stroke="#000000" stroke-width="1" fill="none"></path></g><g transform="translate(310.3359375 116.06341284677862) rotate(0 35.36107936592907 -12.119772735040158)"><path d="M14.43 16.18 L25.42 5.97 L29.32 18.04 L14.43 16.18" stroke="none" stroke-width="0" fill="#000000" fill-rule="evenodd"></path><path d="M14.43 16.18 C17.4 13.42, 20.37 10.67, 25.42 5.97 M14.43 16.18 C16.78 14, 19.14 11.81, 25.42 5.97 M25.42 5.97 C26.56 9.48, 27.69 12.98, 29.32 18.04 M25.42 5.97 C26.93 10.64, 28.44 15.3, 29.32 18.04 M29.32 18.04 C23.86 17.36, 18.41 16.68, 14.43 16.18 M29.32 18.04 C23.75 17.34, 18.19 16.65, 14.43 16.18 M14.43 16.18 C14.43 16.18, 14.43 16.18, 14.43 16.18 M14.43 16.18 C14.43 16.18, 14.43 16.18, 14.43 16.18" stroke="#000000" stroke-width="1" fill="none"></path></g></g><mask id="mask-x3RJzajK4I_phWo2-rijT"><rect x="0" y="0" fill="#fff" width="480.3359375" height="272.06341284677865"></rect><rect x="292.3359375" y="66.24320632724027" fill="#000" width="176" height="20" opacity="1"></rect></mask><g transform="translate(292.3359375 66.24320632724027) rotate(0 53.36107936592907 37.700433784498216)"><text x="88" y="14" font-family="Virgil, Segoe UI Emoji" font-size="16px" fill="#000000" text-anchor="middle" style="white-space: pre;" direction="ltr">Create tokens (NFTs)</text></g><g mask="url(#mask-kDTG5lj9TIR2g_TjrleNy)" stroke-linecap="round"><g transform="translate(337.9712924109717 155.74432016450461) rotate(0 93.5198267267308 -1.230471128044428)"><path d="M0 0 C31.17 -0.41, 155.87 -2.05, 187.04 -2.46 M0 0 C31.17 -0.41, 155.87 -2.05, 187.04 -2.46" stroke="#000000" stroke-width="1" fill="none"></path></g><g transform="translate(337.9712924109717 155.74432016450461) rotate(0 93.5198267267308 -1.230471128044428)"><path d="M187.04 -2.46 L173.53 4.06 L173.36 -8.62 L187.04 -2.46" stroke="none" stroke-width="0" fill="#000000" fill-rule="evenodd"></path><path d="M187.04 -2.46 C182.6 -0.32, 178.16 1.82, 173.53 4.06 M187.04 -2.46 C182.82 -0.43, 178.6 1.61, 173.53 4.06 M173.53 4.06 C173.47 -0.78, 173.4 -5.61, 173.36 -8.62 M173.53 4.06 C173.47 -0.6, 173.41 -5.25, 173.36 -8.62 M173.36 -8.62 C178.1 -6.49, 182.83 -4.36, 187.04 -2.46 M173.36 -8.62 C177.98 -6.54, 182.6 -4.46, 187.04 -2.46 M187.04 -2.46 C187.04 -2.46, 187.04 -2.46, 187.04 -2.46 M187.04 -2.46 C187.04 -2.46, 187.04 -2.46, 187.04 -2.46" stroke="#000000" stroke-width="1" fill="none"></path></g></g><mask id="mask-kDTG5lj9TIR2g_TjrleNy"><rect x="0" y="0" fill="#fff" width="625.0109458644333" height="258.2052624205935"></rect><rect x="407.9911191377025" y="144.51384903646021" fill="#000" width="47" height="20" opacity="1"></rect></mask><g transform="translate(407.9911191377025 144.51384903646021) rotate(0 23.5 10)"><text x="23.5" y="14" font-family="Virgil, Segoe UI Emoji" font-size="16px" fill="#000000" text-anchor="middle" style="white-space: pre;" direction="ltr">Start</text></g><g stroke-linecap="round" transform="translate(531.359375 118.82523757724024) rotate(0 35.5 35)"><path d="M46.03 0.38 C52.42 1.97, 58.36 8.6, 62.48 14.14 C66.6 19.68, 70.39 26.97, 70.75 33.62 C71.11 40.27, 68.39 48.33, 64.65 54.04 C60.9 59.75, 54.88 65.55, 48.29 67.87 C41.7 70.19, 31.96 70, 25.1 67.98 C18.24 65.95, 11.36 60.85, 7.15 55.71 C2.94 50.58, 0.18 43.86, -0.15 37.15 C-0.47 30.44, 1.42 21.3, 5.18 15.44 C8.94 9.58, 15.41 4.18, 22.42 1.99 C29.43 -0.21, 42.88 1.84, 47.25 2.26 C51.63 2.68, 48.85 3.93, 48.67 4.51 M36.68 -0.21 C43.51 -0.76, 52.36 1.4, 57.8 5.81 C63.25 10.21, 67.28 19.52, 69.35 26.2 C71.42 32.88, 72.27 39.39, 70.22 45.91 C68.17 52.42, 63.2 61.26, 57.06 65.3 C50.91 69.34, 40.57 70.37, 33.34 70.14 C26.1 69.92, 18.73 68.19, 13.62 63.94 C8.51 59.68, 4.67 51.21, 2.67 44.59 C0.67 37.97, -0.49 30.76, 1.62 24.2 C3.73 17.65, 9.32 9.07, 15.33 5.25 C21.35 1.43, 34.25 2.04, 37.71 1.26 C41.17 0.49, 36.24 0.23, 36.1 0.59" stroke="#000000" stroke-width="1" fill="none"></path></g><g transform="translate(541.859375 143.82523757724024) rotate(0 25 10)"><text x="25" y="14" font-family="Virgil, Segoe UI Emoji" font-size="16px" fill="#000000" text-anchor="middle" style="white-space: pre;" direction="ltr">Active</text></g><g mask="url(#mask-OM3n1PGwN8rLjM8JByKZo)" stroke-linecap="round"><g transform="translate(590.8045079530843 188.69606333642898) rotate(0 151.35424499217208 35.45041391023341)"><path d="M0 0 C5.94 10.8, 8.89 53.46, 35.66 64.8 C62.42 76.14, 117.95 68.23, 160.57 68.05 C203.19 67.88, 268.74 73.93, 291.38 63.75 C314.02 53.58, 295.58 16.45, 296.43 6.99 M0 0 C5.94 10.8, 8.89 53.46, 35.66 64.8 C62.42 76.14, 117.95 68.23, 160.57 68.05 C203.19 67.88, 268.74 73.93, 291.38 63.75 C314.02 53.58, 295.58 16.45, 296.43 6.99" stroke="#000000" stroke-width="1" fill="none"></path></g><g transform="translate(590.8045079530843 188.69606333642898) rotate(0 151.35424499217208 35.45041391023341)"><path d="M296.43 6.99 L305.24 19.13 L292.79 21.55 L296.43 6.99" stroke="none" stroke-width="0" fill="#000000" fill-rule="evenodd"></path><path d="M296.43 6.99 C298.56 9.93, 300.69 12.87, 305.24 19.13 M296.43 6.99 C298.91 10.41, 301.39 13.82, 305.24 19.13 M305.24 19.13 C301.09 19.93, 296.95 20.74, 292.79 21.55 M305.24 19.13 C301.85 19.79, 298.46 20.45, 292.79 21.55 M292.79 21.55 C293.7 17.91, 294.61 14.27, 296.43 6.99 M292.79 21.55 C293.82 17.42, 294.85 13.29, 296.43 6.99 M296.43 6.99 C296.43 6.99, 296.43 6.99, 296.43 6.99 M296.43 6.99 C296.43 6.99, 296.43 6.99, 296.43 6.99" stroke="#000000" stroke-width="1" fill="none"></path></g></g><mask id="mask-OM3n1PGwN8rLjM8JByKZo"><rect x="0" y="0" fill="#fff" width="987.2297725589706" height="356.7471125772403"></rect><rect x="711.375" y="246.74711257724027" fill="#000" width="80" height="20" opacity="1"></rect></mask><g transform="translate(711.375 246.74711257724027) rotate(0 30.783752945256424 -22.60063533057786)"><text x="40" y="14" font-family="Virgil, Segoe UI Emoji" font-size="16px" fill="#000000" text-anchor="middle" style="white-space: pre;" direction="ltr">Terminate</text></g><g stroke-linecap="round" transform="translate(847.59375 118.14555007724024) rotate(0 35.5 35)"><path d="M58.51 7.46 C63.66 10.57, 66 17.05, 67.46 23.2 C68.92 29.34, 69.21 37.33, 67.26 44.33 C65.32 51.33, 61.46 61.03, 55.77 65.19 C50.08 69.34, 39.74 69.54, 33.12 69.25 C26.49 68.95, 21.05 67.17, 16.04 63.41 C11.04 59.66, 5.13 53.11, 3.09 46.72 C1.05 40.32, 2.13 31.44, 3.82 25.02 C5.51 18.6, 7.86 12.59, 13.22 8.22 C18.58 3.86, 27.9 -1.4, 35.97 -1.17 C44.04 -0.93, 56.51 6.66, 61.64 9.66 C66.78 12.65, 67.18 16.04, 66.79 16.79 M5.82 11.11 C9.79 6.27, 17.98 2.32, 25.55 0.96 C33.12 -0.4, 44.85 0.25, 51.26 2.94 C57.67 5.64, 60.74 10.86, 64.02 17.12 C67.31 23.38, 70.75 33.78, 70.96 40.52 C71.16 47.26, 69.66 53.06, 65.25 57.58 C60.84 62.09, 51.85 65.53, 44.5 67.61 C37.15 69.69, 27.34 72.25, 21.12 70.08 C14.91 67.91, 10.9 61.11, 7.21 54.6 C3.51 48.09, -1.5 38.5, -1.05 31.03 C-0.61 23.56, 8.12 13.16, 9.88 9.79 C11.64 6.41, 8.9 10.02, 9.49 10.78" stroke="#000000" stroke-width="2" fill="none"></path></g><g transform="translate(864.59375 143.14555007724024) rotate(0 18.5 10)"><text x="18.5" y="14" font-family="Virgil, Segoe UI Emoji" font-size="16px" fill="#000000" text-anchor="middle" style="white-space: pre;" direction="ltr">Final</text></g><g mask="url(#mask-jBQI4N-Oe3LSazCUSdYlI)" stroke-linecap="round"><g transform="translate(577.6619920592843 112.05543833642898) rotate(0 47.09548860354573 -23.989030173913704)"><path d="M0 0 C1.81 -6.94, -4.82 -33.66, 10.88 -41.65 C26.58 -49.65, 80.31 -46.92, 94.19 -47.98 M0 0 C1.81 -6.94, -4.82 -33.66, 10.88 -41.65 C26.58 -49.65, 80.31 -46.92, 94.19 -47.98" stroke="#000000" stroke-width="1" fill="none"></path></g><g transform="translate(577.6619920592843 112.05543833642898) rotate(0 47.09548860354573 -23.989030173913704)"><path d="M94.19 -47.98 L80.69 -41.43 L80.5 -54.11 L94.19 -47.98" stroke="none" stroke-width="0" fill="#000000" fill-rule="evenodd"></path><path d="M94.19 -47.98 C89.72 -45.81, 85.24 -43.64, 80.69 -41.43 M94.19 -47.98 C90.65 -46.26, 87.11 -44.54, 80.69 -41.43 M80.69 -41.43 C80.64 -45.19, 80.58 -48.94, 80.5 -54.11 M80.69 -41.43 C80.65 -44.42, 80.6 -47.4, 80.5 -54.11 M80.5 -54.11 C83.93 -52.57, 87.36 -51.04, 94.19 -47.98 M80.5 -54.11 C85.56 -51.85, 90.61 -49.58, 94.19 -47.98 M94.19 -47.98 C94.19 -47.98, 94.19 -47.98, 94.19 -47.98 M94.19 -47.98 C94.19 -47.98, 94.19 -47.98, 94.19 -47.98" stroke="#000000" stroke-width="1" fill="none"></path></g></g><mask id="mask-jBQI4N-Oe3LSazCUSdYlI"><rect x="0" y="0" fill="#fff" width="771.8529692663758" height="260.0334986842564"></rect><rect x="563.5424567794162" y="60.40362137055655" fill="#000" width="50" height="20" opacity="1"></rect></mask><g transform="translate(563.5424567794162 60.40362137055655) rotate(0 61.21502388341389 27.662786791958723)"><text x="25" y="14" font-family="Virgil, Segoe UI Emoji" font-size="16px" fill="#000000" text-anchor="middle" style="white-space: pre;" direction="ltr">Pause</text></g><g stroke-linecap="round" transform="translate(683.27734375 27.184612577240244) rotate(0 35.5 35)"><path d="M19.75 2.91 C25.35 -0.43, 33.93 0.06, 40.75 1.2 C47.58 2.35, 55.71 5.18, 60.71 9.76 C65.71 14.34, 69.85 21.89, 70.76 28.69 C71.68 35.49, 69.36 44.46, 66.21 50.58 C63.06 56.69, 58 62.2, 51.87 65.4 C45.73 68.61, 36.22 70.8, 29.4 69.79 C22.58 68.79, 15.88 64.11, 10.95 59.37 C6.02 54.62, 1.05 48.03, -0.19 41.34 C-1.43 34.64, -0.52 25.69, 3.51 19.2 C7.54 12.71, 20.04 5.49, 24 2.42 C27.96 -0.66, 27.26 0.31, 27.29 0.75 M36.66 -1.16 C43.52 -1.47, 53.58 2.78, 59.29 7.32 C65 11.85, 69.62 19.49, 70.95 26.03 C72.28 32.56, 70 39.86, 67.28 46.52 C64.57 53.19, 60.51 62.22, 54.66 66.03 C48.8 69.85, 38.98 70.19, 32.16 69.41 C25.34 68.64, 18.88 65.77, 13.75 61.4 C8.61 57.03, 3.12 49.57, 1.32 43.2 C-0.47 36.82, 0.46 29.54, 2.97 23.16 C5.48 16.78, 10.5 8.93, 16.39 4.9 C22.28 0.87, 34.84 -0.37, 38.32 -1.01 C41.8 -1.64, 37.21 0.17, 37.28 1.08" stroke="#000000" stroke-width="1" fill="none"></path></g><g transform="translate(702.27734375 52.184612577240244) rotate(0 16.5 10)"><text x="16.5" y="14" font-family="Virgil, Segoe UI Emoji" font-size="16px" fill="#000000" text-anchor="middle" style="white-space: pre;" direction="ltr">Idle</text></g><g mask="url(#mask-VXzcY4Xhbu1J-grwBNzsq)" stroke-linecap="round"><g transform="translate(696.2497334778895 33.8594388437414) rotate(0 -76.58060510812368 40.45112704198607)"><path d="M0 0 C-23.16 1.43, -113.99 -4.96, -138.95 8.58 C-163.92 22.11, -148 69.09, -149.81 81.19 M0 0 C-23.16 1.43, -113.99 -4.96, -138.95 8.58 C-163.92 22.11, -148 69.09, -149.81 81.19" stroke="#000000" stroke-width="1" fill="none"></path></g><g transform="translate(696.2497334778895 33.8594388437414) rotate(0 -76.58060510812368 40.45112704198607)"><path d="M-149.81 81.19 L-157.28 68.19 L-144.65 67.11 L-149.81 81.19" stroke="none" stroke-width="0" fill="#000000" fill-rule="evenodd"></path><path d="M-149.81 81.19 C-152.73 76.11, -155.65 71.02, -157.28 68.19 M-149.81 81.19 C-152.35 76.76, -154.9 72.34, -157.28 68.19 M-157.28 68.19 C-154.22 67.93, -151.16 67.66, -144.65 67.11 M-157.28 68.19 C-154.48 67.95, -151.69 67.71, -144.65 67.11 M-144.65 67.11 C-145.87 70.46, -147.1 73.81, -149.81 81.19 M-144.65 67.11 C-146.32 71.66, -147.98 76.22, -149.81 81.19 M-149.81 81.19 C-149.81 81.19, -149.81 81.19, -149.81 81.19 M-149.81 81.19 C-149.81 81.19, -149.81 81.19, -149.81 81.19" stroke="#000000" stroke-width="1" fill="none"></path></g></g><mask id="mask-VXzcY4Xhbu1J-grwBNzsq"><rect x="0" y="0" fill="#fff" width="946.0571428011372" height="215.05286666126406"></rect><rect x="528.2959570953576" y="32.43474657264588" fill="#000" width="58" height="20" opacity="1"></rect></mask><g transform="translate(528.2959570953576 32.43474657264588) rotate(0 91.37317127440826 41.87581931308159)"><text x="29" y="14" font-family="Virgil, Segoe UI Emoji" font-size="16px" fill="#000000" text-anchor="middle" style="white-space: pre;" direction="ltr">Resume</text></g><g mask="url(#mask-XOIPZm0XvSHBFlKIoOPym)" stroke-linecap="round"><g transform="translate(537.8342237339957 189.38606965084594) rotate(0 -0.1951419593195851 33.52839941964274)"><path d="M0.02 0.37 C-3.11 7.41, -16.98 32.22, -18.42 43.41 C-19.87 54.61, -14.01 67.86, -8.66 67.53 C-3.3 67.2, 9.45 51.48, 13.71 41.41 C17.97 31.34, 16.1 12.58, 16.9 7.13 M-1.44 -0.48 C-4.66 7.17, -17.61 33.36, -18.85 44.34 C-20.09 55.32, -14.42 65.76, -8.89 65.38 C-3.36 65, 9.75 51.82, 14.34 42.07 C18.93 32.33, 18.24 12.62, 18.63 6.92" stroke="#087f5b" stroke-width="1" fill="none"></path></g><g transform="translate(537.8342237339957 189.38606965084594) rotate(0 -0.1951419593195851 33.52839941964274)"><path d="M18.77 5.68 L23.46 20.17 L10.87 22.13 L17.95 6.8" stroke="none" stroke-width="0" fill="#087f5b" fill-rule="evenodd"></path><path d="M19.1 8.17 C19.25 12.67, 23.1 16.81, 23.53 19.61 M18.12 6.71 C20.61 10.46, 21.11 12.17, 24.77 20.52 M24.08 19.68 C18.82 21.43, 13.71 21.06, 12.28 20.56 M24.49 20.76 C20.79 20.04, 16.97 19.96, 11.74 20.52 M12.9 20.66 C15.13 15.92, 17.05 9.59, 20.06 8.32 M12.58 20.85 C13.41 16.47, 15.64 12, 17.92 6.78 M18.63 6.92 C18.63 6.92, 18.63 6.92, 18.63 6.92 M18.63 6.92 C18.63 6.92, 18.63 6.92, 18.63 6.92" stroke="#087f5b" stroke-width="1" fill="none"></path></g></g><mask id="mask-XOIPZm0XvSHBFlKIoOPym"><rect x="0" y="0" fill="#fff" width="675.0214113140139" height="356.55075102872047"></rect><rect x="511.171875" y="246.55075102872053" fill="#000" width="34" height="20" opacity="1"></rect></mask><g transform="translate(511.171875 246.55075102872053) rotate(0 26.46720677467613 -23.63628195823182)"><text x="17" y="14" font-family="Virgil, Segoe UI Emoji" font-size="16px" fill="#087f5b" text-anchor="middle" style="white-space: pre;" direction="ltr">Mint</text></g><g mask="url(#mask-kCjzsjLMuTL03qw-_IvnZ)" stroke-linecap="round"><g transform="translate(610.7341954530843 155.18825083642898) rotate(0 112.67986704691543 -1.3005132591887332)"><path d="M0 0 C37.56 -0.43, 187.8 -2.17, 225.36 -2.6 M0 0 C37.56 -0.43, 187.8 -2.17, 225.36 -2.6" stroke="#000000" stroke-width="1" fill="none"></path></g><g transform="translate(610.7341954530843 155.18825083642898) rotate(0 112.67986704691543 -1.3005132591887332)"><path d="M225.36 -2.6 L211.84 3.89 L211.69 -8.78 L225.36 -2.6" stroke="none" stroke-width="0" fill="#000000" fill-rule="evenodd"></path><path d="M225.36 -2.6 C220.02 -0.03, 214.68 2.53, 211.84 3.89 M225.36 -2.6 C222.59 -1.27, 219.82 0.06, 211.84 3.89 M211.84 3.89 C211.8 0.69, 211.77 -2.52, 211.69 -8.78 M211.84 3.89 C211.8 0.45, 211.76 -3, 211.69 -8.78 M211.69 -8.78 C216.41 -6.65, 221.12 -4.52, 225.36 -2.6 M211.69 -8.78 C214.72 -7.41, 217.75 -6.04, 225.36 -2.6 M225.36 -2.6 C225.36 -2.6, 225.36 -2.6, 225.36 -2.6 M225.36 -2.6 C225.36 -2.6, 225.36 -2.6, 225.36 -2.6" stroke="#000000" stroke-width="1" fill="none"></path></g></g><mask id="mask-kCjzsjLMuTL03qw-_IvnZ"><rect x="0" y="0" fill="#fff" width="936.0939295469151" height="257.7892773548065"></rect><rect x="655.4140624999998" y="143.88773757724027" fill="#000" width="136" height="20" opacity="1"></rect></mask><g transform="translate(655.4140624999998 143.88773757724027) rotate(0 68 10)"><text x="68" y="14" font-family="Virgil, Segoe UI Emoji" font-size="16px" fill="#000000" text-anchor="middle" style="white-space: pre;" direction="ltr">Last NFT minted</text></g></svg>